<?xml version="1.0" encoding="utf-8"?>
<!-- Generator: Adobe Illustrator 20.1.0, SVG Export Plug-In . SVG Version: 6.00 Build 0)  -->
<svg version="1.1" id="Layer_1" xmlns="http://www.w3.org/2000/svg" xmlns:xlink="http://www.w3.org/1999/xlink" x="0px" y="0px"
	 viewBox="0 0 128.9 130.3" style="enable-background:new 0 0 128.9 130.3;" xml:space="preserve">
<style type="text/css">
	.st0{fill:#333333;}
</style>
<path class="st0" d="M128.2,48H61.7v30.9h33.6c-4.8,12.7-15.4,20.6-29.5,20.6c-18.5,0-35-16.1-35-34.3s16.5-34.3,35-34.3
	c8.9,0,16.5,2.7,21.9,8.2l2.4,2.4l23-23l-2.7-2.4C99.8,5.5,84.3,0,65.8,0C28.8,0,0,28.5,0,65.1s28.8,65.1,65.8,65.1
	c33.9,0,58.3-19.9,62.7-52.1c0.7-4.1,1-8.6,1-13c0-5.1-0.3-10.3-1-14.4L128.2,48z M122,77.1c-4.5,29.1-25.4,46.3-56.2,46.3
	c-32.9,0-59-25.7-59-58.3s26.1-58.3,59-58.3c15.4,0,27.8,4.1,37.4,11.7L89.8,31.9c-6.2-5.1-14.4-7.9-24-7.9C43.2,24,24,42.9,24,65.1
	s19.2,41.1,41.5,41.1c18.5,0,33.3-12,37.4-30.2l1-4.1H68.6V54.8h53.8c0.3,3.1,0.7,6.9,0.7,10.3C123.1,69.2,122.7,73.4,122,77.1z"/>
</svg>
