<?xml version="1.0" encoding="utf-8"?>
<!-- Generator: Adobe Illustrator 20.1.0, SVG Export Plug-In . SVG Version: 6.00 Build 0)  -->
<svg version="1.1" id="Capa_1" xmlns="http://www.w3.org/2000/svg" xmlns:xlink="http://www.w3.org/1999/xlink" x="0px" y="0px"
	 viewBox="0 0 196.9 142.4" style="enable-background:new 0 0 196.9 142.4;" xml:space="preserve">
<style type="text/css">
	.st0{fill:#333333;}
</style>
<g>
	<path class="st0" d="M196.9,17.7v59.6c0,0-12.8,2.5-15.4,2.8c-2.6,0.3-10.9,3-16.8-2.7c-9.2-8.8-41.9-41.3-41.9-41.3
		s-5.6-5.5-14.7-0.8c-8.3,4.4-20.6,10.8-25.8,13.3c-9.7,5.2-17.8-3-17.8-9.3c0-4.9,3-8.1,7.4-10.6c11.7-7.1,36.5-21,46.8-26.5
		c6.3-3.3,10.8-3.6,19.4,3.6c10.6,8.9,20,17,20,17s3.1,2.6,8,1.5C178.1,21.9,196.9,17.7,196.9,17.7z M66.8,118.7
		c1.6-4.1,1.1-8.6-2-11.7c-2.7-2.8-6.7-3.5-10.5-2.7c1.1-3.8,0.5-7.8-2.3-10.6c-2.7-2.8-6.7-3.5-10.5-2.7c1.1-3.8,0.5-7.8-2.3-10.6
		C35,76,27.5,76.2,22.6,80.9c-4.9,4.7-8,13.1-3.6,18.1c4.3,4.9,9.3,1.9,13.1,1.1c-1.1,3.8-4.2,7.3-0.3,12.2
		c3.9,4.9,9.3,1.9,13.1,1.1c-1.1,3.7-4.1,7.6-0.3,12.2c3.8,4.6,10,2.1,14,0.9c-1.6,4.1-5,8.4-0.6,13.3c4.3,4.9,14.3,2.6,19.2-2
		c4.9-4.7,5.3-12,1.1-16.5C75.3,118.1,70.9,117.4,66.8,118.7z M155.9,87.7c-35.3-35.3-18.7-18.7-37.7-37.7c0,0-5.7-5.7-13.2-2.4
		c-5.3,2.3-12.1,5.5-17.2,7.9c-5.6,2.9-9.7,3.9-11.6,3.9c-10.9-0.1-19.7-8.8-19.7-19.7c0-7,3.7-13.2,9.3-16.7
		c7.8-5.4,25.9-15,25.9-15s-5.5-7-17.6-7C62.1,0.9,37,17.4,37,17.4s-7.1,4.6-17.3,0.5L0,11v68.2c0,0,5.6,1.6,10.6,3.7
		c1.1-3.2,3-6.2,5.5-8.7c8.4-8,22.2-8,29.8-0.2c2.3,2.4,3.9,5.2,4.7,8.4c3.1,0.9,5.8,2.6,8.1,4.9c2.3,2.4,3.9,5.2,4.7,8.3
		c3.1,0.9,5.8,2.6,8.1,4.9c2.5,2.6,4.2,5.7,5,9.1c3.2,0.9,6.1,2.7,8.4,5c4.6,4.7,6.2,11.1,5.2,17.2c0,0,0,0,0,0
		c0.1,0.1,2.8,3.2,4.5,4.9c3.4,3.4,8.9,3.4,12.2,0c3.4-3.4,3.4-8.9,0-12.2c-0.1-0.1-12.1-12.7-11.2-13.7c1-1,16.3,15,16.6,15.3
		c3.4,3.4,8.9,3.4,12.2,0c3.4-3.4,3.4-8.9,0-12.2c-0.2-0.2-0.9-0.8-1.1-1.1c0,0-15.2-13.5-14-14.7c1.2-1.2,20,16.4,20.1,16.4
		c3.4,3.1,8.6,3,11.9-0.2c3.2-3.2,3.2-8.2,0.4-11.6c-0.1-0.2-14.4-15.1-13.3-16.3c1.1-1.1,15.3,13.5,15.3,13.5
		c3.4,3.4,8.9,3.4,12.2,0c3.4-3.4,3.4-8.9,0-12.3C156,87.7,156,87.7,155.9,87.7z"/>
</g>
</svg>
